<?xml version="1.0" encoding="UTF-8"?>
<svg id="Capa_2" data-name="Capa 2" xmlns="http://www.w3.org/2000/svg" viewBox="0 0 157.32 157.32">
  <defs>
    <style>
      .cls-1 {
        fill: none;
      }

      .cls-1, .cls-2 {
        stroke-width: 0px;
      }

      .cls-2 {
        fill: #ffb400;
      }
    </style>
  </defs>
  <g id="Capa_1-2" data-name="Capa 1">
    <g>
      <g>
        <path class="cls-2" d="m74.12,115.02c-2.08-.31-4.16-.63-6.14-1.39-9.94-3.8-15.94-10.91-17.59-21.45-1.08-6.92.66-13.24,4.61-19.01,5.02-7.34,9.95-14.74,14.91-22.11,1.74-2.59,3.49-5.17,5.24-7.76.92-1.36,2.04-1.35,2.97.02,3.65,5.41,7.29,10.82,10.93,16.24q.48.71.96,0c1.02-1.51,2.03-3.02,3.06-4.52.87-1.28,2.02-1.27,2.89.02,3.03,4.49,6.07,8.97,9.07,13.47,3.34,5.01,2.81,11.47-1.32,15.81-.55.58-.75,1.09-.68,1.92.37,4.35-.2,8.6-1.98,12.61-3.73,8.38-10.1,13.62-19.06,15.68-.92.21-1.86.32-2.79.48h-5.11Zm-20.99-25.85c-.02.69.09,2,.31,3.31,2.1,12.4,13.71,21.3,26.81,19.33,5.69-.86,10.44-3.55,14.19-7.9,3.93-4.56,5.77-9.91,5.73-15.91,0-.9-.08-.94-.94-.6-2.06.82-4.2,1.11-6.39.81-9.39-1.3-14.09-11.88-8.8-19.75,1.07-1.59,2.11-3.19,3.23-4.75.4-.56.35-.95-.02-1.49-3.39-4.99-6.75-9.99-10.11-14.99q-.5-.75-1-.01c-6.33,9.39-12.66,18.78-18.99,28.17-2.68,3.97-4.03,8.35-4.02,13.79Zm51.06-13.5c0-2.11-.5-3.81-1.67-5.54-2.52-3.74-5.04-7.48-7.57-11.23-.43-.63-.43-.63-.88.03-2.52,3.74-5.06,7.48-7.57,11.23-1.37,2.04-1.91,4.27-1.59,6.73.65,5,5.16,8.75,10.18,8.42,5.12-.34,9.09-4.55,9.09-9.64Z"/>
        <path class="cls-2" d="m56.04,89.75c.05-4.99,1.24-8.78,3.67-12.17.68-.95,1.62-1.12,2.35-.45.62.56.67,1.35.09,2.17-1.24,1.76-2.13,3.67-2.64,5.76-2,8.22,2.52,16.63,10.47,19.49.27.1.54.18.79.3.78.35,1.14,1.11.89,1.85-.26.77-1.05,1.19-1.89.95-1.51-.43-2.93-1.08-4.25-1.92-6.16-3.9-9.28-9.54-9.5-15.99Z"/>
        <path class="cls-2" d="m74.63,108.91c-.78,0-1.47-.72-1.48-1.52,0-.79.71-1.49,1.51-1.47.82.02,1.49.7,1.48,1.5,0,.79-.72,1.5-1.51,1.49Z"/>
        <path class="cls-2" d="m86.57,75.37c.04-1.14.22-2.14.62-3.08.37-.86,1.14-1.24,1.94-.97.78.27,1.18,1.1.87,1.98-.86,2.42-.28,4.39,1.72,5.98.73.58.84,1.47.35,2.13-.5.67-1.35.8-2.14.24-2.21-1.55-3.25-3.73-3.36-6.27Z"/>
        <path class="cls-2" d="m96.02,81.83c-.01.84-.65,1.46-1.49,1.45-.84,0-1.45-.65-1.44-1.5.01-.84.66-1.48,1.48-1.45.83.02,1.46.67,1.44,1.5Z"/>
      </g>
      <rect class="cls-1" width="157.32" height="157.32"/>
    </g>
  </g>
</svg>