<?xml version="1.0" encoding="UTF-8"?>
<svg id="Capa_2" data-name="Capa 2" xmlns="http://www.w3.org/2000/svg" viewBox="0 0 157.32 157.32">
  <defs>
    <style>
      .cls-1 {
        fill: none;
      }

      .cls-1, .cls-2 {
        stroke-width: 0px;
      }

      .cls-3 {
        font-family: MyriadPro-Regular, 'Myriad Pro';
        font-size: 6.42px;
      }

      .cls-3, .cls-2 {
        fill: #ffae00;
      }
    </style>
  </defs>
  <g id="Capa_1-2" data-name="Capa 1">
    <g id="Capa_1-2" data-name="Capa 1-2">
      <g>
        <rect class="cls-1" width="157.32" height="157.32"/>
        <g>
          <g>
            <path class="cls-2" d="M119.97,81.85c-.31,2.34-.56,4.7-1.24,6.98-4.78,16.17-15.35,26.41-31.85,29.82-12.97,2.68-24.73-.65-34.78-9.35-7.63-6.6-12.26-14.99-13.57-24.98-1.85-14.1,2.46-26.19,12.81-35.97,6.15-5.81,13.56-9.19,21.93-10.45.81-.12,1.63-.21,2.45-.31,2.24,0,4.47,0,6.71,0,1.5.22,3.02.33,4.49.67,16.42,3.77,27.04,13.74,31.82,29.9.67,2.27.93,4.63,1.24,6.98v6.71ZM117.51,78.5c-.15-21.31-17.05-38.41-38.43-38.42-21.31,0-38.41,17.02-38.42,38.4,0,21.31,17.02,38.41,38.4,38.42,21.31,0,38.28-17.02,38.45-38.4Z"/>
            <path class="cls-2" d="M109.75,79.09c-.04-7.69-2.2-14-6.56-19.57-.25-.31-.5-.63-.71-.96-.44-.68-.37-1.36.17-1.79.57-.46,1.31-.38,1.84.25,1.37,1.64,2.6,3.37,3.63,5.24,2.46,4.42,3.87,9.16,4.17,14.2.33,5.54-.65,10.86-2.99,15.91-2.55,5.52-6.32,10.01-11.31,13.48-4.03,2.8-8.48,4.65-13.34,5.43-10.06,1.6-19.03-.87-26.94-7.27-.7-.57-.85-1.26-.41-1.88.45-.63,1.21-.73,1.96-.13,2.02,1.58,4.12,3.02,6.43,4.13,5.22,2.51,10.7,3.42,16.45,2.87,6.02-.57,11.4-2.77,16.1-6.56,6.11-4.93,9.81-11.31,11.12-19.07.06-.34.13-.68.16-1.02.12-1.3.26-2.6.22-3.28Z"/>
            <path class="cls-2" d="M45.78,77.35c.19-8.59,3.75-16.93,11.06-23.58,5.2-4.73,11.35-7.5,18.3-8.32,8.4-.98,16.1,1.04,23.08,5.82.79.54,1.53,1.16,2.27,1.76.65.53.76,1.24.34,1.83-.43.59-1.13.69-1.84.21-1.12-.76-2.15-1.65-3.29-2.39-3.77-2.44-7.88-4.03-12.32-4.58-9.4-1.15-17.77,1.27-24.89,7.64-4.77,4.26-7.92,9.55-9.3,15.76-1.83,8.22-.62,16.02,3.84,23.24.62,1,1.29,1.95,2.03,2.87.2.25.4.5.57.77.49.74.41,1.48-.2,1.91-.58.41-1.29.27-1.83-.38-1.29-1.56-2.48-3.2-3.47-4.97-2.83-5.07-4.3-10.51-4.34-17.57Z"/>
            <path class="cls-2" d="M80.37,54.23c0,.75.02,1.49,0,2.24-.03.95-.54,1.5-1.31,1.5-.77,0-1.27-.56-1.29-1.52-.02-1.52-.03-3.03,0-4.55.02-.97.51-1.53,1.27-1.55.78-.02,1.3.57,1.33,1.57.02.77,0,1.54,0,2.32Z"/>
            <path class="cls-2" d="M54.78,77.19c.77,0,1.54-.03,2.32,0,.9.04,1.43.54,1.44,1.28,0,.75-.52,1.28-1.42,1.3-1.57.04-3.14.03-4.71,0-.95-.02-1.51-.56-1.49-1.32.02-.73.56-1.23,1.47-1.27.8-.04,1.6,0,2.4,0Z"/>
            <path class="cls-2" d="M103.33,79.8c-.75,0-1.49.02-2.24,0-.95-.03-1.5-.54-1.5-1.31,0-.77.56-1.27,1.52-1.29,1.52-.02,3.03-.03,4.55,0,.97.02,1.53.51,1.55,1.27.02.79-.56,1.3-1.57,1.33-.77.02-1.54,0-2.32,0Z"/>
            <path class="cls-2" d="M80.37,102.86c0,.75.02,1.49,0,2.24-.03.96-.52,1.53-1.27,1.54-.76.02-1.3-.55-1.32-1.49-.03-1.57-.03-3.14,0-4.71.02-.89.56-1.42,1.31-1.41.74,0,1.22.54,1.29,1.44,0,.05,0,.11,0,.16,0,.75,0,1.49,0,2.24h0Z"/>
            <path class="cls-2" d="M59.26,66.28c.02.91-.93,1.59-1.79,1.18-.84-.4-1.64-.88-2.41-1.4-.59-.39-.69-1-.37-1.62.3-.59,1.02-.83,1.64-.51.8.41,1.58.88,2.35,1.35.36.22.54.58.57,1Z"/>
            <path class="cls-2" d="M103.59,65.09c0,.47-.23.82-.61,1.06-.73.44-1.45.89-2.21,1.28-.67.34-1.4.11-1.73-.49-.33-.61-.2-1.26.43-1.67.76-.49,1.54-.96,2.35-1.34.87-.41,1.79.24,1.77,1.17Z"/>
            <path class="cls-2" d="M59.26,90.71c-.04.45-.25.82-.64,1.05-.73.44-1.46.88-2.21,1.28-.62.33-1.35.12-1.69-.4-.37-.57-.23-1.34.39-1.75.73-.48,1.49-.94,2.28-1.31.91-.43,1.89.2,1.87,1.14Z"/>
            <path class="cls-2" d="M100.17,89.39c.15.04.37.06.55.16.77.42,1.54.84,2.28,1.32.63.42.77,1.17.41,1.75-.33.53-1.07.75-1.69.42-.78-.41-1.54-.85-2.27-1.32-.48-.31-.71-.79-.51-1.38.18-.56.58-.87,1.23-.94Z"/>
            <path class="cls-2" d="M68.17,99.61c-.05.16-.08.41-.19.61-.41.75-.82,1.5-1.28,2.21-.4.62-1.11.78-1.67.46-.61-.35-.85-1.05-.51-1.72.4-.78.85-1.54,1.32-2.28.31-.48.79-.72,1.38-.53.56.18.88.58.95,1.25Z"/>
            <path class="cls-2" d="M91.29,98.3c.42.03.79.23,1.02.61.44.73.89,1.46,1.28,2.21.35.68.15,1.37-.45,1.74-.58.36-1.31.2-1.73-.46-.47-.74-.93-1.49-1.3-2.29-.41-.88.22-1.81,1.18-1.82Z"/>
            <path class="cls-2" d="M65.6,53.96c.5-.01.88.22,1.13.63.43.7.86,1.41,1.23,2.14.38.75.17,1.43-.47,1.79-.62.35-1.32.14-1.76-.58-.44-.72-.89-1.45-1.24-2.22-.39-.84.22-1.73,1.11-1.75Z"/>
            <path class="cls-2" d="M93.79,55.33c-.08.2-.16.48-.3.73-.39.7-.76,1.4-1.22,2.05-.39.56-.98.75-1.61.4-.61-.34-.86-.9-.58-1.56.39-.9.88-1.76,1.47-2.55.36-.48.89-.57,1.44-.36.52.21.76.64.8,1.27Z"/>
          </g>
          <rect class="cls-2" x="58.45" y="76.24" width="41.17" height="4.06" rx=".75" ry=".75" transform="translate(49.72 -29.03) rotate(30)"/>
          <text class="cls-3" transform="translate(34.96 56.49)"><tspan x="0" y="0">10</tspan></text>
          <text class="cls-3" transform="translate(114.72 106.64)"><tspan x="0" y="0">16</tspan></text>
        </g>
      </g>
    </g>
  </g>
</svg>