<?xml version="1.0" encoding="UTF-8"?>
<svg id="Capa_2" data-name="Capa 2" xmlns="http://www.w3.org/2000/svg" viewBox="0 0 157.32 157.32">
  <defs>
    <style>
      .cls-1 {
        fill: none;
      }

      .cls-1, .cls-2 {
        stroke-width: 0px;
      }

      .cls-2 {
        fill: #ffb400;
      }
    </style>
  </defs>
  <g id="Capa_1-2" data-name="Capa 1">
    <g>
      <path class="cls-2" d="m79.17,33.97c.77.43.94,1.14.9,1.94-.03.6.22.8.81.82,7,.24,13.78,1.58,20.3,4.16,8.48,3.35,15.78,8.38,21.59,15.47.58.71.72,1.41.36,2.25-.5,1.18-.97,2.37-1.43,3.56-1.01,2.61-2.96,3.89-5.71,3.91-4.39.03-8.78.03-13.17,0-2.67-.02-4.61-1.23-5.64-3.75-.07-.16-.14-.32-.22-.47-.02-.04-.09-.06-.14-.09-.22.08-.25.31-.32.49-1.04,2.6-3.02,3.82-5.76,3.84-3.2.02-6.4.03-9.59-.01-.85-.01-1.08.27-1.08,1.1.02,15.61.02,31.22,0,46.83,0,.78.24,1.05,1.01,1.13,2.99.31,5.8,1.18,8.31,2.89.85.58,1.58,1.28,2.23,2.07.3.37.64.53,1.12.52.87-.03,1.74-.02,2.62,0,.88.03,1.49.63,1.46,1.4-.03.74-.61,1.29-1.45,1.32-.75.03-1.51,0-2.27,0-10.17,0-20.35,0-30.52,0-1.41,0-2.1-.48-2.07-1.41.03-.9.7-1.42,2.06-1.31,1.72.14,2.99-.3,4.26-1.62,2.33-2.41,5.47-3.31,8.71-3.8,2.04-.31,1.69-.02,1.69-1.9.01-15.29,0-30.58,0-45.87q0-1.35-1.32-1.35c-2.91,0-5.81-.05-8.72.01-3.09.06-5.36-1.08-6.48-4.09-.04-.1-.12-.18-.18-.26-.32.1-.31.37-.4.57-1.03,2.53-2.97,3.73-5.64,3.76-4.39.04-8.78.03-13.17,0-2.75-.02-4.7-1.29-5.72-3.9-.52-1.33-1.07-2.64-1.61-3.96,0-.41,0-.81,0-1.22.12-.13.24-.25.35-.39,5.88-7.31,13.34-12.43,22.03-15.82,6.41-2.5,13.08-3.81,19.95-4.05.68-.02.94-.23.9-.91-.05-.77.17-1.44.9-1.85h1.05Zm39.6,22.1c-4.52-5-9.93-8.72-16.02-11.49-4.66-2.12-9.52-3.57-14.64-4.21.7.86,1.48,1.58,2.2,2.36,1.6,1.71,2.86,3.66,4.01,5.68.45.79.27,1.6-.39,2-.66.4-1.46.2-1.97-.53-.23-.33-.43-.69-.64-1.04-1.48-2.49-3.23-4.77-5.52-6.58-3.21-2.54-6.76-3.57-10.75-2.09-2.64.97-4.69,2.78-6.45,4.91-2.51,3.03-4.31,6.47-5.73,10.12-.41,1.04-.42,1.04.67,1.04,10.06,0,20.12,0,30.17,0,.7,0,1.2.03.82-.96-.3-.79.15-1.49.88-1.74.66-.22,1.34.1,1.71.84.14.29.28.58.35.89.16.76.6.98,1.37.97,6.37-.03,12.73-.02,19.1-.02.25,0,.52.09.83-.17Zm-80.37.06c.3.08.35.1.41.1,6.65,0,13.31,0,19.96.02.53,0,.78-.23.95-.69.42-1.11.84-2.23,1.33-3.32,1.92-4.31,4.32-8.3,7.87-11.49.11-.1.31-.19.12-.53-11.83,2.04-22.2,6.92-30.64,15.91Zm40.24,2.96c-4.74,0-9.47,0-14.21,0-2.11,0-1.94-.17-1.17,1.75.77,1.91,1.49,2.38,3.57,2.38,7.96,0,15.92,0,23.88,0,1.55,0,2.62-.62,3.18-2.07.14-.35.28-.7.42-1.05.39-.98.36-1.02-.69-1.02-5,0-9.99,0-14.99,0Zm-30.72,0c-2.87,0-5.75,0-8.62,0q-1.94,0-1.2,1.81c.72,1.78,1.52,2.32,3.45,2.32,4.24,0,8.48,0,12.71,0,1.87,0,2.66-.55,3.38-2.29.13-.32.23-.66.39-.97.37-.71.12-.89-.62-.88-3.16.03-6.33.01-9.49.01Zm61.53,0c-2.9,0-5.81,0-8.71,0q-1.84,0-1.16,1.68c.8,1.96,1.51,2.45,3.62,2.45,3.89,0,7.78,0,11.67,0,3.12,0,3.53-.28,4.67-3.21.35-.9.34-.92-.6-.92-3.16,0-6.33,0-9.49,0Zm-21.5,61.47c-4.41-3.75-14.57-3.58-18.56,0h18.56Z"/>
      <rect class="cls-1" width="157.32" height="157.32"/>
    </g>
  </g>
</svg>