<?xml version="1.0" encoding="UTF-8"?>
<svg id="Capa_2" data-name="Capa 2" xmlns="http://www.w3.org/2000/svg" viewBox="0 0 157.32 157.32">
  <defs>
    <style>
      .cls-1 {
        fill: none;
      }

      .cls-1, .cls-2 {
        stroke-width: 0px;
      }

      .cls-2 {
        fill: #ffb400;
      }
    </style>
  </defs>
  <g id="Capa_1-2" data-name="Capa 1">
    <g>
      <g>
        <path class="cls-2" d="m78.66,38.02c6.56,0,13.13,0,19.69,0,1.67,0,2.13.46,1.97,2.14-.32,3.33-.7,6.66-1.05,9.99-.37,3.47-.75,6.94-1.12,10.4-.49,4.59-.99,9.17-1.47,13.76-.36,3.36-.71,6.71-1.06,10.07-.49,4.59-.92,9.18-1.49,13.76-.53,4.29-.57,8.59-.53,12.9,0,.93,0,1.86,0,2.79-.03,3.1-2.37,5.45-5.47,5.45-6.31.01-12.62.01-18.93,0-3.1,0-5.45-2.36-5.46-5.46-.01-2.93-.02-5.86,0-8.79.02-2.85-.48-5.66-.74-8.49-.33-3.5-.74-6.99-1.11-10.49-.43-4-.86-8-1.28-12-.37-3.47-.72-6.94-1.09-10.41-.41-3.86-.82-7.72-1.23-11.58-.37-3.5-.75-6.99-1.12-10.49-.07-.62-.15-1.23-.17-1.85-.04-1.2.46-1.71,1.66-1.71,3.63,0,7.27,0,10.9,0,3.04,0,6.08,0,9.13,0Zm.01,8.23c-5.69,0-11.38,0-17.07,0-.99,0-1.06.09-.96,1.06.55,5.03,1.1,10.06,1.64,15.1.59,5.57,1.15,11.13,1.74,16.7.77,7.24,1.56,14.48,2.32,21.73.06.59.29.76.84.76,7.63-.01,15.27-.01,22.9,0,.6,0,.83-.19.88-.81.2-2.32.47-4.64.72-6.97.43-4.05.87-8.11,1.3-12.16.36-3.38.71-6.77,1.07-10.15.42-3.94.86-7.88,1.28-11.83.44-4.08.86-8.17,1.31-12.25.12-1.09.09-1.17-.99-1.17-5.66,0-11.32,0-16.98,0Zm0,58.16c-3.75,0-7.49.02-11.24-.01-.7,0-.93.22-.91.92.04,1.6.05,3.21,0,4.82-.03.77.27.97.98.94,1.18-.05,2.37-.05,3.55,0,.67.03.98-.22,1.26-.82,1-2.13,2.69-3.26,5.09-3.25.7,0,1.41.02,2.11,0,2.67-.1,4.53,1.08,5.6,3.51.17.39.4.56.83.55,1.35-.02,2.7-.03,4.06,0,.6.01.78-.22.77-.8-.03-1.63-.04-3.27,0-4.9.02-.73-.19-.98-.95-.97-3.72.04-7.44.02-11.15.02Zm-.03-63.57c-5.83,0-11.66,0-17.49,0-.23,0-.45,0-.68,0-.38-.01-.5.17-.44.53.04.25.05.5.06.76.09,1.28.11,1.3,1.39,1.3,11.44,0,22.88,0,34.31,0,1.28,0,1.3-.02,1.39-1.3,0-.11-.01-.23.02-.34.25-.85-.17-.96-.91-.96-5.89.02-11.78.01-17.66.01Zm.04,73.03c-3.77,0-7.55,0-11.32,0-.8,0-.89.15-.61.89.38,1.01,1.41,1.68,2.69,1.69,1.6.02,3.21,0,4.81,0,4.48,0,8.95,0,13.43,0,1.23,0,2.2-.44,2.78-1.56.42-.83.29-1.03-.63-1.03-3.72,0-7.43,0-11.15,0Zm3.3-2.88c-1.09-1.73-5.71-1.71-6.64,0h6.64Z"/>
        <path class="cls-2" d="m70.48,66.47c0-4.59,3.61-8.17,8.22-8.16,4.54,0,8.12,3.62,8.12,8.18,0,4.59-3.61,8.17-8.22,8.16-4.53,0-8.12-3.62-8.12-8.18Zm8.17,5.35c2.89,0,5.36-2.48,5.33-5.36-.03-2.88-2.4-5.26-5.29-5.31-2.86-.05-5.35,2.41-5.38,5.31-.03,2.87,2.45,5.36,5.34,5.36Z"/>
        <path class="cls-2" d="m71.95,57.91c-.21.44-.59.71-.9,1.02-1.11,1.11-.85,1.1-1.97,0-.54-.53-1.06-1.08-1.61-1.6-.36-.34-.32-.67.05-.9.63-.39.92-1.7,1.81-1.19.96.55,1.66,1.57,2.47,2.38.07.07.1.19.15.28Z"/>
        <path class="cls-2" d="m69.03,77.92c-.31-.09-.49-.36-.71-.57q-1.29-1.27-.04-2.52c.44-.44.89-.86,1.31-1.32.31-.33.55-.37.91-.04,1.69,1.49,1.7,1.48.1,3.09-.36.36-.71.72-1.08,1.07-.14.13-.26.3-.5.29Z"/>
        <path class="cls-2" d="m90.07,56.93c-.02.22-2.58,2.79-2.78,2.82-.19.03-.31-.1-.44-.21q-1.83-1.47-.19-3.11c.1-.1.19-.21.3-.3.46-.34.76-1.2,1.32-1,.71.25,1.17,1.01,1.7,1.59.05.05.06.15.08.2Z"/>
        <path class="cls-2" d="m88.2,77.91c-.22-.02-2.8-2.58-2.82-2.78-.03-.3.22-.44.39-.61q1.43-1.5,2.87-.07c.12.12.25.23.35.36.34.46,1.22.79.99,1.31-.29.67-1.03,1.15-1.58,1.71-.05.05-.15.06-.2.08Z"/>
        <path class="cls-2" d="m80.07,53.65c0,.06,0,.11,0,.17,0,1.96-.4,2.28-2.35,1.9-.36-.07-.46-.26-.46-.58,0-1.01,0-2.02,0-3.03,0-.06,0-.13.02-.17.59-.81,1.44-.24,2.16-.37.46-.09.65.2.64.65-.01.48,0,.96,0,1.43,0,0,0,0,0,0Z"/>
        <path class="cls-2" d="m65.87,67.9c-.08,0-.17,0-.25,0-1.95,0-2.28-.42-1.89-2.36.06-.3.2-.45.5-.45,1.07,0,2.13,0,3.2,0,.03,0,.06,0,.08.01.8.6.24,1.44.37,2.16.09.47-.21.65-.66.63-.45-.01-.9,0-1.35,0,0,0,0,0,0,0Z"/>
        <path class="cls-2" d="m91.49,67.9h-.17c-1.95,0-2.28-.41-1.89-2.36.06-.3.2-.45.49-.45,1.07,0,2.13,0,3.2,0,.03,0,.06,0,.08.01.81.6.24,1.44.37,2.16.09.47-.21.65-.66.63-.48-.01-.96,0-1.43,0h0Z"/>
        <path class="cls-2" d="m80.07,79.34v.08c0,2.17-.12,2.26-2.26,2-.38-.05-.56-.19-.56-.57,0-1.01,0-2.02,0-3.03,0-.06,0-.13.02-.17.59-.82,1.43-.25,2.15-.39.46-.09.66.18.65.64-.01.48,0,.96,0,1.43h0Z"/>
      </g>
      <rect class="cls-1" width="157.32" height="157.32"/>
    </g>
  </g>
</svg>