<?xml version="1.0" encoding="UTF-8"?>
<svg id="Capa_2" data-name="Capa 2" xmlns="http://www.w3.org/2000/svg" viewBox="0 0 157.32 157.32">
  <defs>
    <style>
      .cls-1 {
        fill: #333;
        stroke: #ffae00;
        stroke-miterlimit: 10;
        stroke-width: .47px;
      }

      .cls-2 {
        fill: none;
        stroke-width: 0px;
      }
    </style>
  </defs>
  <g id="Capa_1-2" data-name="Capa 1">
    <g id="Capa_1-2" data-name="Capa 1-2">
      <g>
        <rect class="cls-2" width="157.32" height="157.32"/>
        <path class="cls-1" d="M127.98,113.08c-3.71-18.56-16.47-53.81-20.3-64.17-.96-2.61-2.95-4.77-5.61-6.09-6.67-3.32-12-4.62-12.05-4.63l-.09-.02-.07.05c-4.34,3.34-10.38,3.09-10.45,3.08h-.36c-.06,0-5.75.26-10.09-3.08l-.07-.05-.09.02c-.05.01-5.38,1.31-12.05,4.63-2.65,1.32-4.65,3.49-5.61,6.09-3.82,10.36-16.58,45.61-20.3,64.17l-.03.15.14.06c.06.02,5.87,2.33,12.26,3.73l.16.03,11.65-29.85v31.83h48.75v-31.83l11.65,29.85.16-.03c6.39-1.4,12.21-3.71,12.26-3.73l.14-.06-.03-.15ZM101.91,43.15c1.01.51,1.93,1.14,2.72,1.87-.1.03-.19.07-.28.13-.58.41-.98,1.65-1.2,3.7-1.12-.83-5.5-3.79-12.08-5.06.68-1.53,1.12-3.1,1.41-4.51,2.18.7,5.58,1.94,9.43,3.86ZM79.07,41.67h.34c.06,0,5.88.25,10.3-2.87-.28,1.32-.66,2.48-1.11,3.48-8.45,3.09-17.26.3-18.18,0-.68-1.47-1.08-2.78-1.26-3.46,4.39,3.1,9.86,2.86,9.91,2.85ZM88.38,42.76c-1.35,2.74-3.22,4.3-4.79,5.18-3.27,1.83-7.54,1.32-10.14-1.22-1.21-1.18-2.13-2.62-2.8-3.97,1.21.37,4.83,1.35,9.31,1.35,2.62,0,5.54-.34,8.43-1.34ZM68.72,38.59c.24.97,1.45,5.45,4.47,8.39,1.63,1.59,3.88,2.42,6.15,2.42,1.53,0,3.06-.37,4.43-1.14,2.3-1.29,5.26-4.02,6.36-9.67.31.08,1,.27,1.99.58-1.09,5.45-3.68,9.26-7.49,11.04-2.89,1.35-5.5,1.06-5.53,1.06h-.02c-4.47,0-7.88-2.06-10.14-6.13-1.48-2.66-1.95-5.36-2.05-6.02.9-.28,1.52-.45,1.82-.53ZM56.93,43.15c3.96-1.97,7.44-3.23,9.61-3.92.1.63.44,2.48,1.33,4.55-6.67,1.26-11.08,4.27-12.18,5.09-.21-2.06-.62-3.3-1.2-3.71-.09-.06-.18-.11-.28-.13.79-.73,1.7-1.37,2.72-1.87ZM43.16,116.62c-5.74-1.27-10.98-3.26-11.9-3.62.16-.79.34-1.62.53-2.47,1.1.42,6.5,2.46,12.25,3.86l-.87,2.23ZM44.17,114.03c-5.84-1.42-11.34-3.5-12.3-3.87,4.35-19.11,16.01-51.3,19.64-61.12.5-1.36,1.29-2.59,2.32-3.64.17-.05.31-.04.45.06,1.13.79,1.26,5.9,1.21,7.8l-.44,32.92-10.88,27.86ZM103.42,118.66h-48.01v-2.3h48.01v2.3ZM103.42,115.99h-48.01v-29.78l.44-32.95s.04-1.76-.1-3.61c0-.12-.02-.23-.03-.35.63-.49,5.17-3.84,12.3-5.17.18.39.37.78.59,1.18,1.6,2.89,4.71,6.33,10.46,6.33.06,0,.32.03.73.03,1,0,2.89-.15,4.96-1.12,3.02-1.4,4.93-3.84,6.14-6.41,7.03,1.33,11.52,4.62,12.2,5.14-.01.12-.02.24-.03.36-.14,1.85-.1,3.59-.1,3.61l.44,32.95h0v29.78ZM103.79,86.16l-.44-32.91c-.05-1.9.08-7,1.21-7.8.14-.1.28-.12.45-.06,1.02,1.05,1.82,2.28,2.32,3.64,3.63,9.84,15.32,42.13,19.66,61.22-3.96,1.29-11.15,3.42-12.33,3.77l-10.88-27.86ZM115.68,116.62l-.87-2.24c1.26-.37,8.33-2.47,12.27-3.75.18.82.35,1.61.51,2.37-.93.36-6.16,2.35-11.9,3.62Z"/>
      </g>
    </g>
  </g>
</svg>