<?xml version="1.0" encoding="UTF-8"?>
<svg id="Capa_2" data-name="Capa 2" xmlns="http://www.w3.org/2000/svg" viewBox="0 0 157.32 157.32">
  <defs>
    <style>
      .cls-1 {
        stroke-width: 1.84px;
      }

      .cls-1, .cls-2, .cls-3 {
        fill: none;
      }

      .cls-1, .cls-3 {
        stroke: #fa0;
        stroke-miterlimit: 10;
      }

      .cls-2 {
        stroke-width: 0px;
      }

      .cls-3 {
        stroke-width: .46px;
      }
    </style>
  </defs>
  <g id="Capa_1-2" data-name="Capa 1">
    <g id="Capa_1-2" data-name="Capa 1-2">
      <g>
        <rect class="cls-2" width="157.32" height="157.32"/>
        <g>
          <path class="cls-1" d="M53.76,74.48s1.05-16.83,3.51-22.55c2.45-5.73,14.72-14.37,29.1-13.09,14.37,1.29,21.97,13.32,23.14,22.55,1.17,9.23.47,12.62,1.52,13.56,1.05.93,17.06,8.76,22.9,10.63,5.84,1.87,14.72,3.16,4.79,6.31-9.93,3.16-28.16,9-48.15,18.46-19.98,9.47-36.69,11.57-51.07,0-14.37-11.57-18.58-17.65-18.35-21.85.23-4.21,7.6-6.08,14.84-7.6,7.25-1.52,16.71-3.39,17.76-6.43Z"/>
          <path class="cls-2" d="M133.93,85.59c-3.82-1.22-11.97-4.99-17.46-7.71-9.88,2.59-20.11,3.94-30.45,3.94-11.82,0-23.52-1.77-34.7-5.14-3.51,1.81-10.01,3.12-15.32,4.23-7.24,1.52-14.61,3.39-14.84,7.6-.23,4.21,3.97,10.28,18.35,21.85,14.37,11.57,31.08,9.47,51.07,0,19.98-9.47,38.21-15.31,48.15-18.46,9.93-3.15,1.05-4.44-4.79-6.31Z"/>
          <path class="cls-3" d="M116.25,77.77c-1.14-.57-2.46-1.23-3.62-1.86-.34-.19-.71-.39-1.02-.57-.24-.14-.43-.25-.58-.38-.16-.15-.24-.3-.3-.42-.09-.18-.13-.35-.17-.55-.13-.54-.14-1.01-.17-1.2-33.11,15.41-51.67,5.26-56.61,1.32-.02.24-.03.38-.03.38-.33.95-1.48,1.79-3.13,2.53,24.69,20.94,62.17,2.53,65.63.76Z"/>
        </g>
      </g>
    </g>
  </g>
</svg>